# xmcd
#
# Track frame offsets: 
#        150
#        20175
#        40725
#        62025
#        97425
#
# Disc length: 1442 seconds
#
# Revision: 1
# Processed by: cddbd v1.5.1PL0 Copyright (c) Steve Scherf et al.
# Submitted via: ExactAudioCopy v0.95b3
#
DISCID=4505a005
DTITLE=Various Artist - Fast Forward - Fall 1999
DYEAR=1999
DGENRE=R&B
TTITLE0=New Direction - Who Do You Roll With
TTITLE1=Sammy Sam - Ridin Wit Some Playas
TTITLE2=Mad Professor - Santero Dub
TTITLE3=Russell Gunn - Sybil's Blues
TTITLE4=Clarence Brewer - Fast Food, Slow Death
EXTD=
EXTT0=
EXTT1=
EXTT2=
EXTT3=
EXTT4=
PLAYORDER=
